<?xml version="1.0" encoding="UTF-8" standalone="no"?>
<!-- Created with Inkscape (http://www.inkscape.org/) -->

<svg
   version="1.1"
   id="svg1"
   width="1200"
   height="630"
   viewBox="0 0 1200 630"
   sodipodi:docname="headscale-logo.png"
   xml:space="preserve"
   inkscape:version="1.4 (e7c3feb100, 2024-10-09)"
   xmlns:inkscape="http://www.inkscape.org/namespaces/inkscape"
   xmlns:sodipodi="http://sodipodi.sourceforge.net/DTD/sodipodi-0.dtd"
   xmlns="http://www.w3.org/2000/svg"
   xmlns:svg="http://www.w3.org/2000/svg"><defs
     id="defs1" /><sodipodi:namedview
     id="namedview1"
     pagecolor="#505050"
     bordercolor="#ffffff"
     borderopacity="1"
     inkscape:showpageshadow="0"
     inkscape:pageopacity="0"
     inkscape:pagecheckerboard="1"
     inkscape:deskcolor="#505050"
     inkscape:zoom="0.68690373"
     inkscape:cx="600.52083"
     inkscape:cy="440.38194"
     inkscape:window-width="1920"
     inkscape:window-height="1014"
     inkscape:window-x="0"
     inkscape:window-y="0"
     inkscape:window-maximized="1"
     inkscape:current-layer="g1" /><g
     inkscape:groupmode="layer"
     inkscape:label="Image"
     id="g1"><g
       id="g16"
       transform="matrix(0.95373175,0,0,0.95373175,1206.842,-944.18286)"
       style="stroke-width:1.04851"><path
         style="fill:#f7b4ca;stroke-width:1.04851"
         d="m -1226.4195,1441.0179 v -85.5 h 8 8 v 34.2805 34.2806 l 7.75,-7.5506 c 11.6967,-11.3959 24.265,-16.9765 38.25,-16.9839 16.0914,-0.01 32.2909,9.6747 38.9823,23.3017 5.7719,11.7545 6.2398,16.0501 6.7438,61.9217 l 0.4587,41.75 h -7.9868 -7.9868 l -0.4533,-42.25 c -0.42,-39.1443 -0.6018,-42.673 -2.4728,-48.0046 -2.7339,-7.7902 -6.8869,-13.5259 -12.2698,-16.9456 -6.2667,-3.9813 -11.2334,-5.085 -20.6699,-4.5933 -6.5723,0.3425 -9.3857,1.0321 -14.5,3.5545 -12.9151,6.3696 -22.7713,20.1639 -24.8213,34.739 -0.5415,3.85 -0.9934,21.9625 -1.0043,40.25 l -0.02,33.25 h -8 -8 z m 54,-157.0511 c -3.575,-0.7656 -10.7317,-3.4837 -15.9036,-6.0402 -16.6009,-8.2059 -28.6554,-22.445 -34.9147,-41.2421 -3.6016,-10.8157 -3.7561,-29.0925 -0.3397,-40.1667 9.1524,-29.6665 34.989,-49.1824 65.158,-49.2176 21.6861,-0.025 40.2618,8.9122 53.8502,25.9094 10.2358,12.8036 14.5633,25.8758 14.5025,43.8082 -0.035,10.1943 -0.4365,13.2039 -2.6711,20.0001 -3.7014,11.2571 -8.9793,19.7722 -17.7249,28.5965 -15.9881,16.132 -39.6277,23.1344 -61.9567,18.3524 z"
         id="path15" /><path
         style="fill:#a2a2a2;stroke-width:1.04851"
         d="m -1043.1715,1538.9523 c -20.9166,-4.4207 -39.3438,-21.4763 -46.0131,-42.5881 -11.3985,-36.0828 7.933,-73.9579 43.0558,-84.3568 9.4599,-2.8009 26.7319,-2.3634 36.9573,0.936 22.41397,7.2323 37.53035,24.6267 42.08387,48.4259 0.77887,4.0708 1.41613,9.1618 1.41613,11.3134 v 3.9121 h -55.5939 -55.5938 l 0.6772,5.25 c 1.7073,13.2351 7.061,24.2668 15.6246,32.1951 10.7879,9.9877 22.8994,13.6912 38.0894,11.6469 14.7761,-1.9886 25.96215,-8.7706 34.47741,-20.9036 2.58179,-3.6786 4.84923,-6.8904 5.03875,-7.1372 0.18952,-0.2469 3.28525,1.0013 6.87939,2.7736 l 6.53481,3.2225 -2.24651,3.7263 c -4.41306,7.3201 -11.92982,16.0181 -17.43373,20.1736 -14.96662,11.2999 -34.71492,15.4763 -53.95362,11.4103 z m 59.91703,-79.1075 c -0.34158,-1.5125 -1.90331,-5.5664 -3.4705,-9.0086 -12.72175,-27.9421 -53.86023,-34.9437 -74.85903,-12.7405 -4.6855,4.9542 -13.0875,19.9745 -13.0875,23.3964 0,0.7876 13.1503,1.1027 46.019,1.1027 h 46.0191 z m 94.08297,79.3328 c -22.32784,-5.1485 -40.35279,-21.2783 -47.47282,-42.4817 -10.2954,-30.6595 2.99517,-64.8714 30.87057,-79.4652 9.93988,-5.2039 17.09004,-6.9433 28.60225,-6.9579 17.88036,-0.023 30.59418,5.1764 42.75643,17.4845 3.71604,3.7606 6.97854,6.8375 7.25,6.8375 0.27146,0 0.49357,-4.725 0.49357,-10.5 v -10.5 h 7.5 7.5 v 61.5 61.5 h -7.5 -7.5 v -10.5 c 0,-5.775 -0.20697,-10.5 -0.45993,-10.5 -0.25296,0 -2.58032,2.2668 -5.17191,5.0375 -6.31129,6.7472 -16.92607,13.6578 -25.69201,16.7262 -8.81144,3.0843 -22.28058,3.8702 -31.17615,1.8191 z m 22.61351,-13.5816 c 12.34078,-2.2883 25.87429,-11.6082 32.87227,-22.6375 7.22047,-11.38 9.35051,-29.696 5.06036,-43.5137 -5.63545,-18.1506 -21.05272,-31.3229 -39.87153,-34.0658 -15.36258,-2.2391 -29.3794,2.4617 -40.60045,13.6163 -20.65667,20.5342 -20.7475,52.3306 -0.20808,72.8476 11.83874,11.8259 26.93958,16.6842 42.74743,13.7531 z m 136.38649,13.5859 c -13.87451,-3.2092 -25.03313,-9.7848 -34.48109,-20.3191 -5.85854,-6.5322 -13.27889,-20.9744 -14.93469,-29.0673 -1.57626,-7.7041 -1.33843,-23.7958 0.45433,-30.7406 4.83698,-18.7377 17.84166,-34.6914 34.96145,-42.8896 9.46679,-4.5333 16.22356,-5.9876 27.5,-5.9186 16.95148,0.1035 28.76343,5.1226 41.25,17.5275 l 7.75,7.6994 v -34.9394 -34.9394 h 7.5 7.5 v 85.5 85.5 h -7.5 -7.5 v -10.5988 -10.5988 l -7.55865,7.059 c -13.02065,12.1598 -23.84404,17.0165 -39.44135,17.6982 -6.01121,0.2628 -11.70345,-0.094 -15.5,-0.9725 z m 23.76981,-14.0564 c 18.58121,-3.9375 34.32347,-19.6797 38.26091,-38.2609 1.80543,-8.52 1.81034,-13.9968 0.0201,-22.4435 -5.52976,-26.0908 -29.49037,-42.9498 -55.40294,-38.9821 -27.33764,4.1858 -46.57897,31.9314 -40.96667,59.0731 2.21277,10.7013 6.18266,18.3283 13.69917,26.3192 12.24049,13.0131 27.39932,17.8945 44.38942,14.2942 z m 118.54269,14.7862 c 0.72187,-0.2889 1.58437,-0.2534 1.91667,0.079 0.33229,0.3322 -0.25834,0.5686 -1.3125,0.5252 -1.16495,-0.048 -1.4019,-0.285 -0.60417,-0.6042 z m 482.45649,-0.01 c 0.973,-0.2536 2.323,-0.2369 3,0.037 0.6771,0.2739 -0.119,0.4813 -1.769,0.4609 -1.65,-0.02 -2.2039,-0.2445 -1.231,-0.498 z m -162.0581,-13.212 -0.2109,-10.405 -2.25,1.8678 -2.25,1.8679 2.2222,-2.4073 c 1.2223,-1.324 2.4761,-2.1535 2.7865,-1.8431 0.3103,0.3103 0.4177,5.2353 0.2386,10.9444 l -0.3255,10.3804 z m 49.2672,-75.5949 c 1e-4,-47.3 0.1223,-66.5038 0.2717,-42.675 0.1494,23.8288 0.1493,62.5288 -1e-4,86 -0.1495,23.4712 -0.2717,3.975 -0.2716,-43.325 z m -351.47809,82.1224 c 0,-0.2076 0.7875,-0.9951 1.75,-1.75 1.58605,-1.2439 1.62142,-1.2085 0.37755,0.3776 -1.30637,1.6657 -2.12755,2.1954 -2.12755,1.3724 z m 5,-5 c 0,-0.2076 0.7875,-0.9951 1.75,-1.75 1.58605,-1.2439 1.62142,-1.2085 0.37755,0.3776 -1.30637,1.6657 -2.12755,2.1954 -2.12755,1.3724 z m 285.99999,-2.0002 c 0,-0.2076 0.7875,-0.9951 1.75,-1.75 1.5861,-1.2438 1.6214,-1.2085 0.3776,0.3776 -1.3064,1.6657 -2.1276,2.1955 -2.1276,1.3724 z m 160.8125,-0.3055 c 0.7219,-0.2889 1.5844,-0.2534 1.9167,0.079 0.3323,0.3323 -0.2584,0.5686 -1.3125,0.5252 -1.165,-0.048 -1.4019,-0.2849 -0.6042,-0.6042 z m 8.4565,-0.01 c 0.973,-0.2536 2.323,-0.2369 3,0.037 0.6771,0.2739 -0.119,0.4814 -1.769,0.461 -1.65,-0.02 -2.2039,-0.2445 -1.231,-0.4981 z m 42.231,-3.307 c 2.1483,-2.2 4.1309,-4 4.4059,-4 0.275,0 -1.2576,1.8 -3.4059,4 -2.1482,2.2 -4.1309,4 -4.4059,4 -0.275,0 1.2577,-1.8 3.4059,-4 z m -553.99999,-8 c 0.99548,-1.1 2.03497,-2 2.30997,-2 0.275,0 -0.31449,0.9 -1.30997,2 -0.99549,1.1 -2.03498,2 -2.30998,2 -0.275,0 0.31449,-0.9 1.30998,-2 z m 336.49999,0.6224 c 0,-0.2076 0.7875,-0.9951 1.75,-1.75 1.5861,-1.2439 1.6214,-1.2085 0.3776,0.3776 -1.3064,1.6657 -2.1276,2.1954 -2.1276,1.3724 z m 138.8725,-2.3724 c -1.2439,-1.5861 -1.2085,-1.6215 0.3775,-0.3776 1.6658,1.3064 2.1955,2.1276 1.3725,2.1276 -0.2077,0 -0.9952,-0.7875 -1.75,-1.75 z m -133.3725,-3.25 c 0.9955,-1.1 2.035,-2 2.31,-2 0.275,0 -0.3145,0.9 -1.31,2 -0.9955,1.1 -2.035,2 -2.31,2 -0.275,0 0.3145,-0.9 1.31,-2 z m -276.42104,-1.5834 c 0.048,-1.1649 0.28494,-1.4019 0.60416,-0.6041 0.28887,0.7218 0.25335,1.5843 -0.0789,1.9166 -0.3323,0.3323 -0.56865,-0.2583 -0.52522,-1.3125 z m 0,-9 c 0.048,-1.1649 0.28494,-1.4019 0.60416,-0.6041 0.28887,0.7218 0.25335,1.5843 -0.0789,1.9166 -0.3323,0.3323 -0.56865,-0.2583 -0.52522,-1.3125 z m -7.67396,-16.6666 -1.90499,-2.25 2.25,1.905 c 1.2375,1.0477 2.25,2.0602 2.25,2.25 0,0.8002 -0.8048,0.2094 -2.59501,-1.905 z m 387.674,-0.3334 c 0.048,-1.1649 0.2849,-1.4019 0.6041,-0.6041 0.2889,0.7218 0.2534,1.5843 -0.079,1.9166 -0.3323,0.3323 -0.5686,-0.2583 -0.5252,-1.3125 z m 16,0 c 0.048,-1.1649 0.2849,-1.4019 0.6041,-0.6041 0.2889,0.7218 0.2534,1.5843 -0.079,1.9166 -0.3323,0.3323 -0.5686,-0.2583 -0.5252,-1.3125 z m -220.7508,-6.9166 c 0,-3.85 0.1851,-5.3025 0.4016,-3.2277 0.2165,2.0747 0.2129,5.2247 -0.01,7 -0.2209,1.7752 -0.398,0.078 -0.3936,-3.7723 z m 113.9578,0 c 0.01,-2.75 0.2017,-3.7563 0.4316,-2.2363 0.2298,1.5201 0.2237,3.7701 -0.014,5 -0.2374,1.23 -0.4254,-0.014 -0.4179,-2.7637 z m 90.8719,-6.5 c 0,-1.375 0.227,-1.9375 0.5044,-1.25 0.2774,0.6875 0.2774,1.8125 0,2.5 -0.2774,0.6875 -0.5044,0.125 -0.5044,-1.25 z m 40.5921,-5.7491 c 12.7875,-0.1583 33.7125,-0.1583 46.5,0 12.7875,0.1583 2.325,0.2878 -23.25,0.2878 -25.575,0 -36.0375,-0.1295 -23.25,-0.2878 z m -219.75,-18.6285 c 0,-0.2076 0.7875,-0.9951 1.75,-1.75 1.5861,-1.2439 1.6214,-1.2085 0.3776,0.3776 -1.3064,1.6657 -2.1276,2.1954 -2.1276,1.3724 z m 208,-4.9353 c 0,-0.1721 1.4625,-1.6346 3.25,-3.25 l 3.25,-2.9371 -2.9371,3.25 c -2.7378,3.0294 -3.5629,3.7096 -3.5629,2.9371 z m -120.5491,-15.1871 0.049,-11 7.5,-0.063 7.5,-0.063 -7.2176,0.3545 -7.2177,0.3544 -0.3314,10.7086 -0.3315,10.7085 z m -97.9509,8.5 c 0.9955,-1.1 2.035,-2 2.31,-2 0.275,0 -0.3145,0.9 -1.31,2 -0.9955,1.1 -2.035,2 -2.31,2 -0.275,0 0.3145,-0.9 1.31,-2 z m 299.905,-2.25 -1.905,-2.25 2.25,1.905 c 2.1144,1.7902 2.7052,2.595 1.905,2.595 -0.1898,0 -1.2023,-1.0125 -2.25,-2.25 z m -90.905,-2.75 c 2.1483,-2.2 4.1309,-4 4.4059,-4 0.275,0 -1.2576,1.8 -3.4059,4 -2.1482,2.2 -4.1309,4 -4.4059,4 -0.275,0 1.2577,-1.8 3.4059,-4 z m 85.905,-2.25 -1.905,-2.25 2.25,1.905 c 2.1144,1.7902 2.7053,2.595 1.905,2.595 -0.1898,0 -1.2023,-1.0125 -2.25,-2.25 z m -288.405,0.8724 c 0,-0.2076 0.7875,-0.9951 1.75,-1.75 1.5861,-1.2439 1.6214,-1.2085 0.3776,0.3776 -1.3064,1.6657 -2.1276,2.1954 -2.1276,1.3724 z m 36.8125,-1.3055 c 0.7219,-0.2889 1.5844,-0.2534 1.9167,0.079 0.3323,0.3322 -0.2584,0.5686 -1.3125,0.5252 -1.165,-0.048 -1.4019,-0.285 -0.6042,-0.6042 z m 203.9375,0.021 c 0.6875,-0.2775 1.8125,-0.2775 2.5,0 0.6875,0.2774 0.125,0.5043 -1.25,0.5043 -1.375,0 -1.9375,-0.2269 -1.25,-0.5043 z m 9,0 c 0.6875,-0.2775 1.8125,-0.2775 2.5,0 0.6875,0.2774 0.125,0.5043 -1.25,0.5043 -1.375,0 -1.9375,-0.2269 -1.25,-0.5043 z m -213.5,-15.031 c 0.9625,-0.2516 2.5375,-0.2516 3.5,0 0.9625,0.2515 0.175,0.4573 -1.75,0.4573 -1.925,0 -2.7125,-0.2058 -1.75,-0.4573 z m 8,0 c 0.9625,-0.2516 2.5375,-0.2516 3.5,0 0.9625,0.2515 0.175,0.4573 -1.75,0.4573 -1.925,0 -2.7125,-0.2058 -1.75,-0.4573 z m 196,0 c 0.9625,-0.2516 2.5375,-0.2516 3.5,0 0.9625,0.2515 0.175,0.4573 -1.75,0.4573 -1.925,0 -2.7125,-0.2058 -1.75,-0.4573 z m 9,0 c 0.9625,-0.2516 2.5375,-0.2516 3.5,0 0.9625,0.2515 0.175,0.4573 -1.75,0.4573 -1.925,0 -2.7125,-0.2058 -1.75,-0.4573 z m -941.08179,-133.4567 c -6.4464,-3.1909 -9.6682,-8.6449 -9.6682,-16.3667 0,-5.148 0.4695,-6.8361 2.8616,-10.2879 8.267,-11.9293 27.3826,-10.6224 33.6381,2.2999 7.9025,16.3242 -10.0798,32.6466 -26.8315,24.3547 z m 88.63547,0.1052 c -2.03298,-1.0737 -4.95798,-3.6063 -6.5,-5.6279 -2.46789,-3.2356 -2.80367,-4.5328 -2.80367,-10.8315 0,-6.3013 0.33527,-7.5953 2.80793,-10.8371 5.13384,-6.7308 15.37618,-9.6222 23.37697,-6.5993 15.26283,5.7666 15.26297,29.106 0,34.8727 -4.4625,1.6861 -12.74674,1.2067 -16.88123,-0.9769 z m -86.14857,-66.4138 c -4.9515,-1.7655 -8.4529,-5.0314 -10.7651,-10.0414 -2.3439,-5.0785 -2.3439,-9.9214 0,-15 4.7003,-10.1842 16.2481,-14.2783 26.0901,-9.25 9.3075,4.7553 13.1149,13.9757 9.5863,23.2152 -3.7866,9.9151 -14.637,14.7395 -24.9113,11.0762 z m 90.18754,0.4839 c -8.35975,-2.5254 -13.02211,-8.3583 -13.65302,-17.0805 -0.36022,-4.98 -0.0296,-6.5421 2.18411,-10.3195 3.82509,-6.527 8.58047,-9.1102 16.78629,-9.1185 5.79463,-0.01 7.21237,0.383 10.91094,2.9932 8.13881,5.7438 10.54545,15.993 5.79442,24.6767 -3.93916,7.1998 -14.04274,11.2594 -22.02274,8.8486 z"
         id="path13"
         sodipodi:nodetypes="sssssscccsssssscsssssssscsssssssscccccccsssssssssssscsssssscccccccccccsscsssssssssssssscssccccsssccsssssssssssssssssssssscsssssssssssssssssssssssssssssssssssscssssssssssssscsccccscccsssssssssssssscsscccccccccsssssscssssssssscsssssssssssssssssssssssssssssssssssssssssssssssssssssssscsss" /><path
         style="fill:#8c8c8c;stroke-width:1.04851"
         d="m -599.961,1529.123 c -2.7728,-0.6737 -7.18707,-2.2635 -9.80949,-3.533 -5.5388,-2.6813 -14.50273,-9.5272 -15.34346,-11.7181 -0.36503,-0.9513 1.19855,-3.3125 4.23493,-6.3952 l 4.81363,-4.8871 4.37834,4.0358 c 6.41465,5.9128 13.42435,8.8708 21.04962,8.8827 7.05977,0.011 11.18944,-1.3984 16.01173,-5.4645 5.30375,-4.472 7.48666,-9.7794 7.02222,-17.0733 -0.63838,-10.0256 -5.25456,-14.4193 -28.63055,-27.251 -10.78201,-5.9185 -17.46187,-12.0043 -20.8274,-18.9754 -3.77727,-7.8238 -4.02416,-20.1774 -0.55412,-27.726 5.55151,-12.0767 16.90817,-18.6765 32.13759,-18.6765 8.16461,0 14.86289,2.4342 23.3361,8.4806 9.89127,7.0582 9.86192,6.9702 4.229,12.6891 l -4.82047,4.894 -4.01754,-3.4388 c -13.13447,-11.2426 -30.59871,-11.2495 -37.18282,-0.014 -2.8176,4.8078 -3.24689,10.8089 -1.13482,15.8638 1.73877,4.1615 6.71474,8.4899 15.84928,13.7868 23.28286,13.5013 29.221,18.4302 33.63139,27.9155 2.1023,4.5213 2.54919,6.9472 2.51153,13.6336 -0.0388,6.8911 -0.50306,9.1061 -3.03907,14.5 -5.27733,11.2243 -14.71494,18.5469 -26.77804,20.7769 -7.22229,1.3351 -10.56078,1.2754 -17.06758,-0.3054 z m 126.51184,0.3364 c -7.304,-1.0759 -17.6216,-4.8844 -24.5566,-9.0644 -6.8101,-4.1047 -18.2132,-15.8662 -22.3778,-23.0813 -11.52847,-19.9727 -10.27958,-48.1587 3.0054,-67.8271 4.4601,-6.6033 14.8454,-16.5403 21.1445,-20.2318 14.962,-8.7683 40.3172,-11.5256 57.9189,-6.2985 12.3522,3.6683 26.1871,12.7651 31.7828,20.8982 l 3.0528,4.4371 -3.7202,2.4525 c -7.9135,5.217 -7.2963,5.2704 -13.9563,-1.2063 -10.3323,-10.0478 -23.1133,-14.9904 -38.7639,-14.9904 -27.1199,0 -48.2909,17.0163 -52.5442,42.2328 -4.4188,26.1976 13.7015,52.7434 39.7744,58.2684 19.7955,4.1947 38.8398,-1.2598 52.3203,-14.9853 2.4472,-2.4917 4.7939,-4.5338 5.2149,-4.5379 0.421,0 3.2235,1.6245 6.2278,3.6193 l 5.4624,3.6268 -1.9121,2.6852 c -12.2972,17.2699 -42.2008,27.814 -68.0731,24.0027 z m 150.5296,0.4267 c -25.2324,-3.8998 -46.4017,-23.417 -52.9614,-48.8283 -1.8053,-6.9934 -2.0285,-23.1083 -0.4258,-30.7407 1.5118,-7.1999 7.1057,-19.1204 11.5928,-24.7042 13.5599,-16.8743 29.7566,-25.1668 49.2481,-25.2144 19.3663,-0.047 31.4366,5.0812 44.7963,19.0337 l 6.25,6.5274 v -11.2209 -11.2208 h 7.5 7.5 v 61.5 61.5 h -7.5 -7.5 v -10.5 c 0,-5.7855 -0.4164,-10.5 -0.9274,-10.5 -0.5101,0 -1.8795,1.2375 -3.0431,2.75 -5.6477,7.3408 -19.7547,16.7293 -29.7329,19.7878 -5.031,1.5421 -19.6699,2.6227 -24.7966,1.8304 z m 21.4134,-14.9095 c 19.4115,-4.5756 34.142,-21.2147 37.0753,-41.8792 5.934,-41.803 -35.5171,-71.938 -72.1179,-52.43 -6.5766,3.5053 -15.148,12.018 -19.3603,19.2276 -5.8343,9.9858 -7.9681,24.5131 -5.4088,36.8236 2.6329,12.6641 12.8664,26.663 24.3983,33.3756 10.1421,5.9035 23.3538,7.725 35.4134,4.8824 z m 182.5866,14.9085 c -25.0519,-3.8637 -45.2632,-22.2713 -52.102,-47.4525 -1.2076,-4.4465 -1.7242,-9.9433 -1.6836,-17.9147 0.094,-18.4337 5.1781,-31.3752 17.5339,-44.6296 12.5948,-13.5108 26.2935,-19.4867 44.7619,-19.5267 6.595,-0.014 12.927803,0.5959 17.000003,1.6381 26.004,6.6547 44.019,28.6894 46.5822,56.9762 l 0.6835,7.542 h -55.767103 -55.7671 l 0.678,5.9928 c 2.9259,25.8614 22.5353,44.0072 47.5568,44.0072 6.9689,0 19.744803,-3.5906 25.862103,-7.2684 5.9211,-3.5598 14.0312,-11.8545 17.456,-17.8533 1.213,-2.1246 2.5557,-3.8664 2.9839,-3.8706 0.4282,0 3.4595,1.3456 6.7362,2.9997 l 5.9577,3.0074 -3.1672,5.2426 c -1.742,2.8834 -6.8152,8.8798 -11.2738,13.3253 -8.7494,8.7237 -16.2797,13.161 -26.963,15.8882 -6.2157,1.5867 -21.935203,2.688 -27.068403,1.8963 z m 55.500003,-77.6731 c 0,-3.1001 -4.3818,-13.8778 -7.3116,-17.9841 -16.1923,-22.6939 -52.438603,-26.2604 -71.372503,-7.0228 -5.2643,5.3488 -11.7582,16.9225 -12.9403,23.0628 l -0.6256,3.25 h 46.125 c 37.285103,0 46.125003,-0.2503 46.125003,-1.3059 z m -152.000003,-11.1941 v -85.5 h 7.5 7.5 v 85.5 85.5 h -7.5 -7.5 z m -650.71348,-131.2401 c 3.18258,-0.1991 8.13258,-0.1972 11,0 2.86742,0.2013 0.26349,0.3642 -5.78651,0.3619 -6.05,0 -8.39607,-0.167 -5.21349,-0.366 z m 76.71349,-24.9465 c -19.77439,-3.2764 -40.01652,-18.3492 -48.85487,-36.3786 -5.66204,-11.55 -7.45185,-19.2381 -7.4345,-31.9349 0.0166,-12.1586 1.81131,-20.0913 6.91218,-30.5525 16.72451,-34.2999 58.44997,-47.7064 92.61,-29.7558 8.60702,4.5229 19.45448,14.5069 24.53698,22.5839 8.46725,13.4561 11.87545,26.7521 10.93534,42.6609 -2.14936,36.3724 -32.10983,64.4461 -68.20513,63.91 -4.4,-0.065 -9.125,-0.3052 -10.5,-0.533 z m 147,0.065 c -26.615,-5.0973 -47.32097,-24.2288 -54.66211,-50.5056 -2.84132,-10.1702 -2.37997,-28.1074 0.98695,-38.3725 9.6541,-29.4334 34.79091,-47.8365 65.1309,-47.6835 18.68848,0.094 34.27297,6.6744 47.57718,20.0885 17.53609,17.6808 24.25766,44.8772 16.95322,68.5951 -6.66706,21.6482 -23.75998,38.8626 -45.37962,45.702 -6.008,1.9007 -24.99557,3.2506 -30.60652,2.176 z"
         id="path12" /><path
         style="fill:#2f2f2f;stroke-width:1.04851"
         d="m -887.95842,1324.2679 c -0.26186,-0.6875 -0.36019,-51.425 -0.21852,-112.7501 l 0.25759,-111.5 0.4999,112.7501 c 0.27494,62.0125 0.37328,112.75 0.21851,112.75 -0.15476,0 -0.49563,-0.5625 -0.75748,-1.25 z m 37.03887,0.25 c -0.3738,-0.6049 -7.51039,-1 -18.05902,-1 h -17.44098 v -111.0001 -111 h 17.3 c 9.65698,0 17.7197,-0.4218 18.25,-0.9547 0.60029,-0.6034 0.82889,1.7894 0.62099,6.5 l -0.329,7.4547 h -10.83921 c -5.96156,0 -11.55101,0.2732 -12.42099,0.607 -1.4274,0.5478 -1.58179,10.1128 -1.58179,98 0,77.3811 0.25684,97.3417 1.25,97.1431 0.6875,-0.1375 1.1375,0.3125 1,1 -0.18832,0.9416 2.56627,1.25 11.16467,1.25 h 11.41467 l 0.33533,6.5021 c 0.35286,6.842 0.3223,7.0948 -0.66467,5.4979 z m 310.75,0.2514 -18.25,-0.2966 v -5.4774 -5.4774 l 10.75,-0.1995 10.75,-0.1995 -11.5,-0.601 -11.5,-0.6011 11.16821,-0.1995 c 6.14252,-0.1097 11.88002,-0.4726 12.75,-0.8064 1.42725,-0.5477 1.58179,-10.0247 1.58179,-97.0001 0,-113.0959 1.77145,-100.393 -14,-100.393 h -10 v -5.8 c 0,-3.19 -0.42847,-6.2275 -0.95214,-6.75 -0.60141,-0.6 6.21337,-0.8428 18.5,-0.659 l 19.45213,0.291 v 112.459 c 0,61.8525 -0.1125,112.3574 -0.25,112.2331 -0.1375,-0.1243 -8.46249,-0.3595 -18.49999,-0.5226 z"
         id="path9" /></g></g></svg>
